<svg width="286" height="206" viewBox="0 0 286 206" fill="none" xmlns="http://www.w3.org/2000/svg">
<path d="M94.4523 163.447C93.6451 161.235 93.3732 158.943 92.6669 156.79C90.9572 155.206 88.9588 154.192 87.8236 152.182C86.9548 153.895 88.0899 155.907 88.8691 157.558C88.5103 157.914 88.8663 158.273 88.7205 158.559C88.9364 158.489 89.2223 158.634 89.5081 158.777C90.2117 160.93 92.5688 162.303 94.4467 163.486C94.4467 163.472 94.4523 163.461 94.4523 163.447Z" fill="#90C0C1"/>
<path d="M85.9663 93.9916C85.5234 91.5895 84.89 89.2267 84.2565 86.8639C83.5278 85.9278 82.9785 84.9272 81.7284 84.7702C80.9997 83.8341 80.0943 82.9596 79.545 81.959C78.421 82.1552 79.2731 83.4473 78.9312 84.1648C79.1189 84.6946 79.2423 85.0505 79.6066 85.5186C79.9178 86.4043 80.4083 87.2255 80.3634 88.2345C81.2155 89.5266 82.132 90.9925 83.5671 91.682C84.1192 92.6826 84.9601 93.3777 85.9579 94.0336C85.9579 94.0196 85.9635 94.0056 85.9663 93.9916Z" fill="#EFCB9A"/>
<path d="M90.2729 56.6999C90.8391 58.9169 91.5819 61.0835 92.3246 63.2501C93.0646 64.0798 93.642 64.9795 94.8191 65.0439C95.5591 65.8736 96.4588 66.6331 97.039 67.5329C98.0761 67.2778 97.1988 66.1258 97.4734 65.4335C97.266 64.9486 97.1259 64.6263 96.7559 64.2115C96.4084 63.4043 95.8982 62.6671 95.8758 61.7226C94.9957 60.5706 94.0484 59.2561 92.6638 58.7067C92.0864 57.807 91.2539 57.21 90.2786 56.6606C90.2786 56.6747 90.2758 56.6859 90.2758 56.6999H90.2729Z" fill="#EFCB9A"/>
<path d="M71.5413 36.4905C70.1147 34.5285 68.5339 32.6842 66.9531 30.8399C65.8992 30.313 64.9771 29.6543 63.7915 30.0495C62.7376 29.5226 61.552 29.1274 60.6299 28.4688C59.7077 29.1274 61.0251 29.9178 61.0251 30.7082C61.4203 31.1034 61.6837 31.3669 62.2107 31.6303C62.8693 32.289 63.6597 32.8159 64.0549 33.7381C65.3723 34.5285 66.8213 35.4506 68.4021 35.4506C69.3243 36.1093 70.3781 36.3727 71.5525 36.5297C71.5497 36.5157 71.5441 36.5017 71.5413 36.4877V36.4905Z" fill="#59ACC3"/>
<path d="M198.906 205.126C201.064 204.824 203.287 204.731 205.499 204.297C207.161 203.03 208.472 201.603 210.504 201.006C210.496 200.835 210.482 200.493 209.964 200.342C209.109 200.378 208.254 200.412 207.399 200.448C206.558 200.827 205.532 200.869 204.677 200.902C203.671 201.457 202.659 201.841 201.662 202.57C201.496 202.749 201.505 202.92 201.339 203.097C200.512 203.817 199.501 204.201 198.875 205.115C198.887 205.118 198.898 205.121 198.909 205.123L198.906 205.126Z" fill="#F58676"/>
<path d="M65.2811 37.7354C66.3406 42.9066 71.6155 45.4965 76.1421 46.9287C76.0132 45.0592 74.836 43.5289 73.4262 42.5535C72.4956 40.7401 70.5336 39.532 68.4848 39.0023C68.1989 38.7528 67.913 38.5062 67.6271 38.2567C66.8255 38.3128 66.007 38.0998 65.2671 37.6934C65.2699 37.7074 65.2727 37.7214 65.2783 37.7354H65.2811Z" fill="#90C0C1"/>
<path d="M112.203 8.07217C112.201 8.19923 112.283 8.22446 112.447 8.14784C112.825 7.67136 112.1 7.40789 112.478 6.92861C109.989 4.17903 107.632 1.07068 104.125 0C105.905 1.8751 105.939 5.16843 108.972 5.85793C108.84 6.21949 108.955 6.46614 109.07 6.71279C109.779 7.58448 111.376 7.13882 112.035 7.99089C112.128 8.01892 112.161 8.02452 112.203 8.06656V8.07217Z" fill="#59ACC3"/>
<path d="M131.614 66.5115C131.681 66.504 131.744 66.5489 131.802 66.646C132.051 65.7183 132.155 64.8774 131.793 63.9077C131.443 63.1285 131.051 62.3633 130.613 61.6233C130.176 60.8834 129.691 60.1687 129.159 59.496C128.11 58.1899 126.97 56.8894 125.327 56.0737C125.795 57.5676 126.115 59.1456 126.289 60.8077C126.544 61.2478 126.65 61.7747 127.155 61.9737C127.656 62.4193 128.231 62.823 128.57 63.4116C128.738 63.7059 128.466 64.2552 128.867 64.6112C129.669 65.3259 130.535 65.8052 131.463 66.3966C131.549 66.4414 131.58 66.4554 131.611 66.5087L131.614 66.5115Z" fill="#EFCB9A"/>
<path d="M11.5337 33.0421C11.6906 33.0141 11.813 33.1028 11.9008 33.3084C11.6374 32.6946 11.5056 32.3863 11.2422 31.7724C7.904 29.9282 3.77542 28.7902 0 29.3172C1.88911 30.3262 2.98782 32.0387 4.7424 32.7394C5.928 32.958 7.15844 32.4311 7.99088 33.5298C9.17648 33.7484 10.4069 33.2215 11.3347 33.0589C11.4384 33.0365 11.472 33.0253 11.5337 33.0449V33.0421Z" fill="#90C0C1"/>
<path d="M143.007 114.737C142.869 115.109 143.158 114.79 143.293 115.028L143.449 114.473C143.503 114.288 143.318 114.235 143.133 114.184C143.421 113.868 143.71 113.548 143.629 113.128C143.52 112.099 143.225 111.02 142.746 109.888C142.348 109.176 141.765 108.413 141.602 107.57C140.12 105.756 139.161 103.492 136.863 102.443C137.129 102.917 137.393 103.391 137.474 103.814C137.664 105.263 137.011 106.875 137.622 108.245C138.39 109.061 138.685 110.14 139.795 110.454C139.823 111.059 139.8 111.852 140.013 112.511C140.596 113.274 141.572 113.349 142.393 113.98C142.525 114.218 142.71 114.269 142.841 114.591C142.939 114.658 142.976 114.681 143.007 114.742V114.737Z" fill="#EFCB9A"/>
<path d="M157.031 143.951C157.325 143.825 157.081 144.071 157.28 144.169C157.132 144.22 156.986 144.27 156.837 144.321C156.689 144.371 156.638 144.223 156.588 144.077C156.344 144.326 156.1 144.573 155.753 144.528C154.915 144.486 154.026 144.295 153.084 143.959C152.49 143.668 151.846 143.23 151.153 143.138C149.615 142.017 147.737 141.344 146.784 139.528C147.179 139.721 147.577 139.915 147.922 139.962C149.104 140.049 150.383 139.447 151.52 139.881C152.216 140.467 153.104 140.655 153.41 141.54C153.903 141.535 154.542 141.481 155.086 141.624C155.73 142.062 155.837 142.849 156.383 143.485C156.582 143.584 156.633 143.729 156.899 143.822C156.958 143.9 156.978 143.925 157.028 143.951H157.031Z" fill="#EFCB9A"/>
<path d="M179.339 133.983C179.408 134.211 179.353 134.352 179.173 134.407C178.902 134.488 178.82 134.216 178.739 133.944C178.467 134.025 178.195 134.107 178.195 134.107C174.672 132.201 171.99 129.154 170.857 125.354C172.861 127.122 176.362 126.965 176.71 130.116L178.473 131.069C178.986 131.803 178.604 132.506 178.848 133.322C179.392 133.159 178.93 133.594 179.266 133.812C179.288 133.908 179.294 133.939 179.339 133.983Z" fill="#F58676"/>
<path d="M204.185 172.834C204.291 172.854 204.488 172.874 204.664 173.092C206.321 172.473 208.07 172.857 209.858 172.848C210.273 172.694 210.707 172.341 211.099 172.383C212.445 170.937 213.97 169.706 215.842 168.91C214.219 167.346 212.044 169.104 210.099 168.697C208.835 169.359 207.377 169.998 206.464 171.094C205.46 171.186 204.765 172.106 204.148 172.815C204.16 172.82 204.171 172.826 204.182 172.832L204.185 172.834Z" fill="#DEB176"/>
<path d="M201.499 167.246C201.973 167.779 202.41 167.793 203.285 167.818C203.722 167.832 203.932 168.056 204.145 168.28C204.583 168.294 204.807 168.081 205.02 168.305C207.601 169.693 210.844 170.878 213.305 168.984C214.614 169.023 215.926 169.059 217.235 169.099L217.683 168.675C217.271 167.79 216.399 167.765 215.763 167.089C214.028 166.601 212.058 166.761 210.561 165.626C208.801 166.013 206.856 165.298 205.295 166.346C204.857 166.332 204.42 166.321 203.986 166.307C203.1 166.719 202.438 166.918 201.466 167.212C201.477 167.224 201.488 167.232 201.502 167.243L201.499 167.246Z" fill="#F58676"/>
<path d="M223.457 170.776C223.687 170.711 223.776 170.588 223.724 170.406C223.645 170.135 223.373 170.213 223.101 170.294C223.023 170.022 222.942 169.751 222.942 169.751C219.424 167.831 215.413 167.236 211.607 168.352C214.18 169.072 215.954 172.097 218.785 170.676C219.489 171.06 219.839 171.253 220.542 171.637C221.436 171.671 221.823 170.967 222.636 170.726C222.796 171.27 222.908 170.648 223.275 170.81C223.368 170.779 223.398 170.765 223.457 170.776Z" fill="#F16856"/>
<path d="M258.765 131.148C258.902 131.07 258.913 130.991 258.799 130.913C258.23 131.019 257.605 130.84 257.204 131.061C254.513 132.443 252.212 134.343 250.923 136.942C251.262 137.174 251.388 136.266 251.778 136.782C252.064 136.728 252.296 136.392 252.579 136.339C254.227 136.476 255.777 135.305 256.537 133.836C258.014 133.858 258.036 132.378 258.448 131.42C258.448 131.42 258.734 131.367 258.69 131.28C258.715 131.204 258.723 131.179 258.762 131.148H258.765Z" fill="#F16856"/>
<path d="M233.792 165.772C233.942 165.725 233.971 165.651 233.879 165.551C233.299 165.525 232.733 165.209 232.293 165.335C229.358 166.075 226.69 167.409 224.849 169.648C225.126 169.951 225.454 169.093 225.718 169.688C226.006 169.702 226.309 169.424 226.6 169.435C228.173 169.94 229.95 169.147 231.02 167.888C232.456 168.241 232.809 166.806 233.425 165.963C233.425 165.963 233.714 165.977 233.692 165.881C233.734 165.814 233.748 165.792 233.792 165.769V165.772Z" fill="#F16856"/>
<path d="M259.125 167.793C259.489 167.835 259.658 167.689 259.999 167.4C260.17 167.258 260.327 167.269 260.484 167.283C260.655 167.14 260.669 166.98 260.826 166.994C262.284 166.641 263.923 165.988 264.215 164.427C264.728 163.995 265.241 163.563 265.751 163.129L265.779 162.815C265.319 162.619 264.977 162.905 264.506 162.866C263.68 163.272 262.982 164.006 262.026 164.082C261.488 164.83 260.501 165.223 260.266 166.153C260.095 166.296 259.924 166.442 259.753 166.585C259.557 167.045 259.372 167.344 259.103 167.79C259.111 167.79 259.119 167.79 259.128 167.79L259.125 167.793Z" fill="#955431"/>
<path d="M228.76 177.157C229.292 177.437 229.64 177.317 230.335 177.078C230.682 176.958 230.918 177.073 231.15 177.188C231.498 177.067 231.613 176.835 231.846 176.949C234.292 177.277 237.199 177.249 238.575 175.027C239.618 174.668 240.663 174.309 241.706 173.95L241.936 173.482C241.35 172.905 240.652 173.146 239.951 172.801C238.441 172.93 236.935 173.642 235.419 173.191C234.147 174.018 232.403 174.032 231.484 175.321C231.136 175.442 230.789 175.559 230.441 175.68C229.864 176.266 229.401 176.619 228.723 177.143C228.734 177.148 228.748 177.151 228.76 177.157Z" fill="#F58676"/>
<path d="M174.165 168.87C173.843 168.242 173.428 168.121 172.601 167.883C172.186 167.762 172.04 167.496 171.892 167.23C171.477 167.109 171.211 167.258 171.062 166.989C168.938 165.027 166.129 163.09 163.312 164.295C162.071 163.937 160.826 163.575 159.585 163.216L159.049 163.511C159.223 164.458 160.053 164.699 160.493 165.501C162.029 166.395 163.954 166.728 165.103 168.183C166.88 168.247 168.565 169.411 170.314 168.794C170.729 168.914 171.144 169.035 171.556 169.153C172.503 168.979 173.184 168.951 174.187 168.909C174.179 168.895 174.171 168.884 174.162 168.87H174.165Z" fill="#F16856"/>
<path d="M264.11 163.111C263.165 162.267 262.187 161.412 260.466 161.805C257.705 160.426 254.213 161.858 251.416 162.69C251.794 162.85 252.015 163.385 252.394 163.545C254.067 163.8 255.471 164.165 256.988 164.798C259.356 164.453 261.724 164.111 264.138 163.133C264.129 163.125 264.118 163.116 264.107 163.108L264.11 163.111Z" fill="#EFCB9A"/>
<path d="M214.823 165.018C214.114 163.664 213.368 162.285 211.255 162.002C208.716 159.278 204.164 159.424 200.652 159.186C201.013 159.525 201.036 160.225 201.397 160.565C203.183 161.56 204.615 162.566 206.061 163.922C208.884 164.533 211.709 165.144 214.848 165.06C214.84 165.046 214.834 165.032 214.826 165.021L214.823 165.018Z" fill="#EFCB9A"/>
<path d="M164.358 168.628C165.025 169.9 165.726 171.198 167.713 171.464C170.104 174.026 174.386 173.892 177.691 174.116C177.352 173.796 177.329 173.138 176.99 172.818C175.311 171.882 173.963 170.935 172.604 169.659C169.947 169.085 167.29 168.51 164.335 168.589C164.344 168.6 164.349 168.614 164.358 168.625V168.628Z" fill="#EFCB9A"/>
<path d="M150.85 166.524C151.279 167.929 151.736 169.364 153.681 170.008C155.592 173.033 159.917 173.708 163.194 174.56C162.913 174.176 163.017 173.509 162.737 173.125C161.229 171.867 160.055 170.661 158.933 169.123C156.377 168.041 153.818 166.962 150.839 166.479C150.844 166.494 150.847 166.508 150.853 166.522L150.85 166.524Z" fill="#EFCB9A"/>
<path d="M263.16 140.641C263.51 140.748 263.874 140.658 263.874 140.658C264.396 140.353 265.13 140.176 265.654 139.87C266.705 139.893 267.784 139.778 268.807 139.481C269.833 139.187 270.806 138.707 271.647 137.995C272.325 136.252 274.545 135.809 275.862 134.492C275.17 133.735 273.9 134.158 272.95 134.17C271.736 134.952 270.419 135.05 269.312 135.288C267.737 136.174 266.318 136.855 265.433 138.489C264.121 138.623 264.129 139.873 263.118 140.63C263.132 140.63 263.143 140.633 263.157 140.636L263.16 140.641Z" fill="#F16856"/>
<path d="M161.61 169.737C161.725 170.034 161.982 170.236 161.982 170.236C162.473 170.429 162.986 170.838 163.476 171.034C164.026 171.766 164.682 172.444 165.436 172.991C166.187 173.534 167.036 173.947 167.978 174.143C169.536 173.675 171.03 174.958 172.642 175.157C172.79 174.277 171.818 173.633 171.299 172.988C170.114 172.576 169.337 171.724 168.58 171.093C167.129 170.485 165.901 169.88 164.306 170.151C163.51 169.325 162.658 170 161.596 169.711C161.601 169.723 161.607 169.731 161.613 169.742L161.61 169.737Z" fill="#F58676"/>
<path d="M133.381 148.13C133.367 148.763 133.644 149.035 134.196 149.582C134.474 149.854 134.474 150.128 134.477 150.403C134.754 150.675 135.029 150.672 135.029 150.947C135.872 153.41 137.265 156.143 140.012 156.396C140.842 157.211 141.671 158.03 142.501 158.845L143.05 158.84C143.319 158.016 142.765 157.469 142.759 156.648C141.924 155.283 140.545 154.195 140.256 152.55C138.877 151.737 138.042 150.098 136.394 149.837C136.116 149.565 135.841 149.293 135.564 149.021C134.74 148.752 134.188 148.483 133.375 148.088C133.375 148.102 133.375 148.116 133.378 148.13H133.381Z" fill="#F58676"/>
<path d="M152.802 157.721C152.934 158.22 153.211 158.372 153.766 158.671C154.044 158.823 154.108 159.036 154.17 159.249C154.448 159.4 154.661 159.336 154.725 159.549C155.939 161.284 157.643 163.106 159.843 162.685C160.675 163.136 161.508 163.588 162.34 164.039L162.769 163.913C162.792 163.206 162.237 162.907 162.049 162.265C161.09 161.385 159.767 160.846 159.173 159.627C157.915 159.302 156.892 158.209 155.543 158.377C155.266 158.226 154.988 158.077 154.711 157.926C154.005 157.903 153.514 157.817 152.791 157.69C152.794 157.702 152.799 157.71 152.802 157.721Z" fill="#F58676"/>
<path d="M285.977 128.959C285.1 128.329 283.9 129.046 283.059 129.402C282.46 129.52 281.98 129.761 281.381 129.638C279.94 130.834 278.258 132.028 277.297 133.704L277.535 133.946C277.656 133.825 277.894 133.825 278.255 133.946C278.735 133.707 279.335 133.828 279.814 133.348C281.372 133.231 282.454 132.396 283.533 131.557C284.133 130.719 284.853 130.243 285.574 129.523C285.694 129.402 285.815 129.043 286.002 128.959C285.994 128.959 285.983 128.956 285.974 128.954L285.977 128.959Z" fill="#955431"/>
<path d="M273.242 174.452C269.203 173.289 265.433 176.133 262.555 178.816C262.905 179.057 263.082 179.177 263.435 179.421C265.632 178.861 267.886 178.597 269.797 177.322C270.215 177.092 270.576 176.562 270.82 176.212C271.655 175.749 272.491 175.29 273.276 174.46C273.264 174.457 273.256 174.455 273.245 174.452H273.242Z" fill="#F16856"/>
<path d="M220.61 185.113C219.523 184.659 218.329 184.875 217.311 185.253C217.14 185.259 216.79 185.099 216.619 185.105C215.447 186.005 213.917 186.403 212.93 187.639L212.588 187.65C212.087 188.011 211.927 188.359 211.422 188.72C212.115 188.869 212.807 189.015 213.499 189.163C214.505 188.44 215.711 188.572 216.905 188.356C218.062 187.114 219.59 186.545 220.635 185.119C220.627 185.116 220.618 185.113 220.61 185.11V185.113Z" fill="#F58676"/>
<path d="M185.538 200.425C186.561 200.532 187.617 200.792 188.674 200.916C189.731 201.042 190.787 201.033 191.813 200.624C192.304 200.15 192.906 199.831 193.548 199.57C194.19 199.309 194.868 199.108 195.513 198.878C194.641 197.928 193.072 198.152 191.883 198.18C191.623 198.216 191.6 197.947 191.339 197.981C190.151 198.001 189.408 198.64 188.363 198.769C187.839 198.833 187.763 199.525 187.219 199.315C186.577 199.525 186.095 200.125 185.515 200.408C185.524 200.414 185.532 200.419 185.54 200.425H185.538Z" fill="#DEB176"/>
<path d="M165.75 165.369C167.099 165.943 168.43 166.736 169.817 167.347C171.205 167.958 172.645 168.39 174.215 168.258C175.081 167.818 176.037 167.633 177.018 167.546C177.999 167.459 179.008 167.468 179.98 167.423C179.19 165.767 176.956 165.416 175.328 164.959C174.958 164.898 175.039 164.522 174.669 164.46C173.043 163.99 171.765 164.553 170.288 164.289C169.548 164.158 169.156 165.069 168.5 164.556C167.536 164.575 166.633 165.192 165.725 165.332C165.734 165.343 165.742 165.355 165.753 165.366L165.75 165.369Z" fill="#DEB176"/>
<path d="M170.829 100.372C171.157 102.474 172.349 104.296 173.725 105.967C174.616 106.479 175.552 106.953 176.511 107.41C177.472 107.864 178.453 108.301 179.437 108.739C179.011 107.844 178.532 106.934 177.988 106.056C177.444 105.179 176.836 104.338 176.152 103.579C174.781 102.062 173.097 100.882 171 100.442C170.905 100.42 170.872 100.414 170.827 100.372H170.829Z" fill="#F58676"/>
<path d="M222.648 190.504C222.615 190.39 222.542 190.372 222.43 190.45C223.189 191.173 224.288 191.661 225.266 191.981C226.345 191.726 227.542 191.639 228.739 191.552C229.025 191.602 229.313 191.653 229.599 191.703C231.707 191.479 233.411 191.039 235.331 190.193C232.901 188.881 229.728 187.589 227.318 189.531C226.017 187.678 224.299 189.89 222.839 190.42C222.746 190.478 222.716 190.498 222.648 190.504Z" fill="#F58676"/>
<path d="M186.157 161.928C186.114 162.061 186.173 162.126 186.336 162.125C186.073 160.922 185.327 159.728 184.584 158.775C183.368 158.315 182.149 157.612 180.927 156.911C180.68 156.673 180.436 156.438 180.189 156.199C177.995 155.033 176.05 154.344 173.628 153.904C175.13 156.774 177.364 160.115 180.98 159.807C181.027 162.461 184.15 161.438 185.916 161.886C186.044 161.892 186.087 161.892 186.157 161.928Z" fill="#F58676"/>
<path d="M255.829 178.734C255.741 178.642 255.662 178.661 255.593 178.79C256.667 179.112 257.945 179.045 259.03 178.874C259.932 178.112 261.028 177.45 262.127 176.791C262.424 176.702 262.721 176.609 263.018 176.519C264.915 175.289 266.32 174.047 267.738 172.315C264.792 172.242 261.151 172.545 259.8 175.555C257.667 174.423 257.104 177.355 255.969 178.563C255.907 178.664 255.888 178.697 255.829 178.734Z" fill="#F58676"/>
<path d="M262.009 160.679C261.549 159.847 260.756 159.549 259.893 159.432C259.03 159.314 258.099 159.373 257.359 159.247C257.16 159.135 256.961 159.02 256.765 158.908C255.756 158.776 254.738 158.866 253.749 159.118C252.76 159.37 251.798 159.79 250.901 160.32C249.962 160.082 248.852 160.94 247.827 161.248C248.312 161.971 249.043 162.313 249.881 162.492C250.719 162.672 251.664 162.686 252.572 162.756C252.771 162.868 252.97 162.98 253.166 163.092C254.696 163.661 256.291 162.49 257.709 162.408C258.965 161.346 260.638 161.71 262.037 160.701C262.029 160.693 262.017 160.685 262.009 160.676V160.679Z" fill="#DEB176"/>
<path d="M217.693 165.712C218.54 166.337 219.358 166.816 220.656 166.474C221.645 167.601 223.408 167.971 224.877 168.279C227.117 167.828 229.25 166.435 231.66 166.634C231.133 166.217 230.962 165.569 230.438 165.151C228.969 164.843 227.206 164.473 225.861 163.579C223.975 163.798 221.968 164.602 220.02 165.115C219.725 165.053 219.431 164.992 219.14 164.93C218.784 165.163 218.369 165.687 217.663 165.681C217.671 165.692 217.682 165.701 217.691 165.712H217.693Z" fill="#DEB176"/>
<path d="M272.998 140.608C273.077 140.608 273.22 140.591 273.377 140.717C274.45 140.03 275.74 140.036 277.001 139.759C277.27 139.588 277.522 139.274 277.805 139.243C278.534 138.018 279.422 136.922 280.622 136.079C279.24 135.221 277.973 136.79 276.541 136.799C275.751 137.455 274.82 138.127 274.344 139.038C273.651 139.254 273.301 140.008 272.973 140.602C272.982 140.602 272.99 140.605 272.998 140.608Z" fill="#F16856"/>
<path d="M268.579 165.58C268.632 165.572 268.73 165.549 268.851 165.625C269.54 165.056 270.437 164.952 271.292 164.652C271.463 164.509 271.614 164.271 271.808 164.226C272.211 163.313 272.735 162.475 273.501 161.785C272.466 161.306 271.718 162.503 270.723 162.632C270.23 163.156 269.638 163.702 269.383 164.375C268.918 164.585 268.739 165.137 268.562 165.58C268.568 165.58 268.573 165.58 268.582 165.58H268.579Z" fill="#F16856"/>
<path d="M257.033 176.07C256.946 176.067 256.789 176.07 256.629 175.921C255.401 176.591 253.986 176.482 252.584 176.689C252.276 176.858 251.976 177.18 251.662 177.191C250.768 178.475 249.712 179.61 248.333 180.44C249.779 181.488 251.287 179.868 252.856 179.969C253.773 179.31 254.846 178.646 255.438 177.684C256.214 177.499 256.657 176.701 257.061 176.078C257.052 176.076 257.041 176.073 257.033 176.07Z" fill="#F16856"/>
<path d="M246.676 181.885C246.724 181.461 246.441 181.282 246.16 181.103C244.706 181.439 243.091 180.834 241.76 180.405C240.546 180.685 239.212 180.993 237.898 181.419C236.583 181.845 235.288 182.395 234.159 183.149C234.604 184.278 235.857 184.233 237.107 184.186C237.875 184.253 238.722 184.791 239.487 184.858C240.799 184.427 242.04 183.953 243.234 183.454C244.428 182.955 245.577 182.434 246.701 181.904C246.693 181.896 246.682 181.89 246.673 181.885H246.676Z" fill="#955431"/>
<path d="M155.548 133.583C156.807 133.723 157.356 134.912 158.474 135.273C159.301 135.54 160.03 135.915 160.773 136.394C161.798 137.056 162.69 137.667 163.217 138.836C163.486 139.436 163.581 140.114 163.842 140.705C164.105 141.305 164.764 141.832 165.137 142.381C165.417 142.796 165.801 143.18 166.042 143.615C166.19 143.878 166.263 143.94 165.927 144.063C165.333 144.282 164.45 143.856 163.906 143.654C163.107 143.357 162.485 142.785 161.877 142.213C161.257 141.63 160.428 141.552 159.817 140.983C159.111 140.324 158.584 139.497 158.079 138.682C157.872 138.345 157.555 138.115 157.401 137.773C157.188 137.303 157.275 136.865 156.908 136.417C156.563 135.994 156.271 135.713 156.053 135.181C155.834 134.648 155.655 134.138 155.5 133.578C155.515 133.578 155.529 133.578 155.545 133.583H155.548Z" fill="#74ABAE"/>
<path d="M61.0634 4.13393C61.7277 4.0078 62.193 4.52913 62.8208 4.53753C63.2833 4.54314 63.7149 4.62162 64.169 4.74775C64.794 4.92433 65.3462 5.0953 65.7974 5.61102C66.0301 5.87449 66.1842 6.20522 66.4084 6.46589C66.6327 6.72655 67.0559 6.89472 67.3306 7.11615C67.538 7.28432 67.793 7.41885 67.9864 7.60384C68.1042 7.71595 68.149 7.73557 67.9977 7.85049C67.7286 8.0551 67.2129 7.97662 66.9017 7.957C66.4477 7.92897 66.0413 7.73557 65.6433 7.53937C65.2369 7.34037 64.8024 7.43006 64.3988 7.23387C63.9363 7.00964 63.5383 6.67049 63.1515 6.33415C62.9918 6.19681 62.7956 6.12674 62.6639 5.97819C62.4817 5.77078 62.4564 5.53535 62.2014 5.36437C61.9603 5.20181 61.7669 5.10371 61.5735 4.86827C61.3801 4.63283 61.2064 4.39739 61.041 4.13673C61.0494 4.13673 61.055 4.13393 61.0634 4.13112V4.13393Z" fill="#74ABAE"/>
<path d="M44.4 41.7882C45.2577 41.6508 45.8406 42.3375 46.645 42.3739C47.242 42.3992 47.7942 42.5169 48.3716 42.6963C49.1704 42.9457 49.8739 43.1896 50.4345 43.8679C50.7232 44.2182 50.9082 44.647 51.1884 44.9918C51.4687 45.3365 52.0041 45.5692 52.3516 45.8663C52.6123 46.0877 52.9374 46.2755 53.1757 46.5165C53.3214 46.6651 53.3803 46.6931 53.1813 46.8333C52.8253 47.0855 52.1638 46.965 51.7686 46.9286C51.1856 46.8753 50.6699 46.6118 50.1626 46.3456C49.6469 46.0737 49.0835 46.1718 48.5734 45.9055C47.9848 45.6 47.4859 45.146 47.0038 44.6975C46.8048 44.5125 46.5526 44.4172 46.39 44.221C46.163 43.9491 46.1405 43.6436 45.8182 43.4138C45.5127 43.1952 45.2689 43.0634 45.0278 42.7495C44.7868 42.4356 44.5737 42.1301 44.3691 41.7882C44.3775 41.7882 44.3888 41.7854 44.4 41.7826V41.7882Z" fill="#90C0C1"/>
<path d="M108.498 30.5981C107.705 30.5084 107.36 29.76 106.654 29.533C106.133 29.3648 105.673 29.1294 105.205 28.8267C104.56 28.4119 103.997 28.0251 103.666 27.2879C103.495 26.9095 103.436 26.4835 103.274 26.1107C103.111 25.738 102.694 25.4016 102.458 25.0541C102.282 24.7934 102.041 24.5524 101.886 24.2777C101.794 24.1123 101.746 24.0731 101.959 23.9946C102.335 23.8573 102.89 24.1263 103.232 24.2525C103.736 24.4403 104.126 24.799 104.51 25.1578C104.899 25.5249 105.421 25.5754 105.808 25.9342C106.253 26.349 106.584 26.8703 106.904 27.3832C107.035 27.5934 107.234 27.7392 107.332 27.955C107.467 28.2521 107.414 28.5268 107.643 28.8099C107.859 29.0761 108.044 29.2527 108.182 29.5891C108.319 29.9254 108.431 30.2449 108.529 30.5981C108.521 30.5981 108.51 30.5981 108.501 30.5981H108.498Z" fill="#74ABAE"/>
<path d="M115.449 43.4493C116.436 43.6259 116.809 44.5957 117.675 44.9376C118.314 45.1927 118.872 45.5262 119.432 45.9438C120.209 46.5184 120.881 47.051 121.234 48.0039C121.417 48.4944 121.456 49.0354 121.63 49.5147C121.803 49.994 122.3 50.4536 122.566 50.9077C122.765 51.2496 123.048 51.5748 123.216 51.9307C123.32 52.1465 123.373 52.1998 123.101 52.2783C122.619 52.4184 121.944 52.0372 121.526 51.8466C120.909 51.5691 120.447 51.0843 119.998 50.6022C119.539 50.1089 118.888 50.0024 118.434 49.5203C117.91 48.9625 117.538 48.2814 117.182 47.6115C117.036 47.3341 116.798 47.1379 116.691 46.8576C116.548 46.4736 116.638 46.1344 116.374 45.7589C116.125 45.4057 115.909 45.1675 115.763 44.7358C115.618 44.3042 115.503 43.8894 115.41 43.4409C115.421 43.4409 115.433 43.4437 115.444 43.4465L115.449 43.4493Z" fill="#74ABAE"/>
<path d="M132.413 59.2858C133.464 59.6866 133.675 60.8301 134.555 61.3879C135.208 61.8027 135.752 62.2848 136.284 62.8622C137.018 63.6582 137.652 64.3813 137.842 65.5052C137.941 66.0826 137.873 66.6852 137.966 67.2514C138.058 67.8176 138.51 68.423 138.709 68.9808C138.857 69.3984 139.101 69.8132 139.213 70.242C139.28 70.5027 139.331 70.5728 139.014 70.6036C138.454 70.6597 137.789 70.0963 137.366 69.802C136.744 69.3676 136.337 68.7397 135.942 68.1147C135.539 67.4784 134.843 67.2234 134.443 66.5984C133.98 65.8752 133.711 65.0484 133.459 64.2356C133.355 63.8992 133.134 63.633 133.078 63.305C132.999 62.8538 133.17 62.495 132.954 62.0297C132.753 61.5897 132.562 61.2842 132.495 60.7769C132.427 60.2695 132.383 59.7903 132.377 59.2773C132.388 59.2829 132.402 59.2857 132.413 59.2914V59.2858Z" fill="#74ABAE"/>
<path d="M119.867 94.1302C120.935 94.646 121.053 95.868 121.93 96.5351C122.578 97.0284 123.107 97.5889 123.615 98.242C124.315 99.1445 124.915 99.9629 125.016 101.163C125.066 101.779 124.94 102.407 124.985 103.01C125.03 103.612 125.45 104.293 125.61 104.896C125.731 105.35 125.949 105.81 126.028 106.269C126.076 106.55 126.12 106.625 125.787 106.631C125.193 106.639 124.545 105.986 124.128 105.639C123.514 105.126 123.141 104.428 122.782 103.736C122.415 103.029 121.709 102.699 121.344 102.006C120.924 101.205 120.716 100.308 120.523 99.4304C120.445 99.0688 120.234 98.7661 120.206 98.4158C120.164 97.9337 120.377 97.5749 120.192 97.0648C120.019 96.5827 119.848 96.2436 119.822 95.7054C119.797 95.1673 119.794 94.66 119.834 94.1162C119.845 94.1218 119.859 94.1274 119.87 94.133L119.867 94.1302Z" fill="#F5CEAD"/>
<path d="M158.891 111.659C159.956 111.976 160.245 113.088 161.153 113.576C161.825 113.935 162.397 114.375 162.963 114.904C163.745 115.636 164.421 116.303 164.693 117.396C164.833 117.957 164.808 118.557 164.939 119.109C165.071 119.661 165.559 120.224 165.797 120.76C165.974 121.16 166.245 121.553 166.386 121.965C166.472 122.217 166.526 122.282 166.217 122.335C165.668 122.43 164.973 121.926 164.536 121.665C163.891 121.281 163.445 120.692 163.008 120.104C162.565 119.504 161.862 119.305 161.422 118.719C160.914 118.041 160.589 117.245 160.281 116.46C160.155 116.138 159.917 115.891 159.835 115.569C159.726 115.129 159.866 114.764 159.622 114.322C159.39 113.901 159.182 113.615 159.079 113.122C158.975 112.629 158.899 112.158 158.852 111.65C158.863 111.653 158.877 111.656 158.888 111.662L158.891 111.659Z" fill="#F5CEAD"/>
<path d="M144.203 139.518C143.247 139.613 142.65 138.817 141.762 138.724C141.106 138.657 140.503 138.492 139.878 138.256C139.012 137.928 138.253 137.614 137.678 136.83C137.384 136.426 137.205 135.938 136.919 135.54C136.633 135.142 136.055 134.851 135.691 134.5C135.416 134.237 135.072 134.013 134.822 133.73C134.671 133.556 134.606 133.522 134.836 133.379C135.243 133.124 135.966 133.301 136.403 133.365C137.045 133.461 137.597 133.786 138.138 134.114C138.69 134.447 139.318 134.377 139.862 134.702C140.489 135.078 141.014 135.61 141.515 136.135C141.723 136.35 141.995 136.471 142.163 136.701C142.395 137.017 142.401 137.354 142.743 137.628C143.065 137.889 143.329 138.052 143.573 138.41C143.822 138.775 144.032 139.122 144.237 139.512C144.226 139.512 144.214 139.512 144.203 139.515V139.518Z" fill="#F5CEAD"/>
<path d="M144.071 80.9458C145.237 81.5624 145.321 82.9246 146.269 83.701C146.969 84.2755 147.536 84.9174 148.074 85.6657C148.816 86.6972 149.453 87.6305 149.514 88.9647C149.548 89.6514 149.383 90.3465 149.408 91.0163C149.433 91.6862 149.873 92.4598 150.027 93.1353C150.142 93.6426 150.366 94.1611 150.436 94.6769C150.479 94.9908 150.526 95.0777 150.153 95.0693C149.492 95.0552 148.797 94.3041 148.348 93.9005C147.687 93.3063 147.3 92.5159 146.927 91.7311C146.549 90.9295 145.775 90.5371 145.397 89.7523C144.96 88.8442 144.766 87.8407 144.587 86.8569C144.514 86.4505 144.293 86.1086 144.273 85.7162C144.245 85.178 144.494 84.7856 144.312 84.2139C144.138 83.6729 143.962 83.2889 143.954 82.6891C143.945 82.0893 143.965 81.5259 144.026 80.9233C144.04 80.9289 144.054 80.9373 144.068 80.943L144.071 80.9458Z" fill="#74ABAE"/>
<path d="M64.5304 42.1607C64.0875 42.4298 63.3112 42.228 62.8431 42.1495C62.1536 42.0346 61.565 41.6758 60.9876 41.3142C60.399 40.9443 59.7207 41.0115 59.1405 40.65C58.4707 40.2323 57.9157 39.6522 57.3832 39.0776C57.1645 38.8393 56.873 38.7076 56.6937 38.4553C56.4498 38.1106 56.4498 37.7462 56.0854 37.4435C55.7407 37.1576 55.4632 36.9783 55.2054 36.5859C54.9447 36.1879 54.7205 35.8123 54.5103 35.3862C54.5215 35.3862 54.5327 35.3862 54.5467 35.3834C54.9895 35.1144 55.7659 35.3162 56.234 35.3947C56.9235 35.5096 57.5121 35.8683 58.0895 36.2299C58.6781 36.5999 59.3564 36.5326 59.9365 36.8942C60.6064 37.3118 61.1614 37.892 61.6939 38.4666C61.9125 38.7048 62.204 38.8365 62.3834 39.0888C62.6273 39.4335 62.6273 39.7979 62.9916 40.1006C63.3364 40.3865 63.6139 40.5659 63.8717 40.9583C64.1296 41.3507 64.3566 41.7319 64.5668 42.1579C64.5556 42.1579 64.5444 42.1579 64.5304 42.1607Z" fill="#74ABAE"/>
<path d="M108.324 42.2955C107.923 42.4413 107.329 42.1554 106.964 42.0209C106.426 41.819 106.009 41.4351 105.599 41.0539C105.182 40.6615 104.624 40.6082 104.215 40.2242C103.738 39.7814 103.385 39.2264 103.046 38.6771C102.906 38.45 102.693 38.2959 102.589 38.0661C102.446 37.7493 102.502 37.455 102.258 37.1551C102.026 36.8692 101.83 36.6815 101.684 36.3227C101.538 35.9639 101.415 35.622 101.311 35.2436C101.319 35.2436 101.331 35.2436 101.339 35.2464C101.74 35.1007 102.334 35.3865 102.698 35.5211C103.237 35.7229 103.654 36.1069 104.063 36.4881C104.481 36.8805 105.039 36.9337 105.448 37.3177C105.925 37.7605 106.278 38.3155 106.617 38.8649C106.757 39.0919 106.97 39.246 107.074 39.4759C107.217 39.7926 107.161 40.0869 107.404 40.3868C107.637 40.6727 107.833 40.8605 107.979 41.2192C108.125 41.578 108.248 41.92 108.352 42.2983C108.343 42.2983 108.332 42.2983 108.324 42.2955Z" fill="#2E7075"/>
<path d="M131.828 134.165C131.206 134.297 130.385 133.75 129.875 133.47C129.121 133.06 128.583 132.402 128.059 131.752C127.523 131.084 126.71 130.888 126.181 130.235C125.57 129.481 125.163 128.582 124.777 127.699C124.617 127.334 124.334 127.062 124.23 126.698C124.084 126.199 124.23 125.776 123.933 125.28C123.65 124.809 123.398 124.489 123.257 123.929C123.117 123.368 123.008 122.833 122.935 122.256C122.949 122.258 122.963 122.261 122.977 122.267C123.599 122.135 124.421 122.682 124.931 122.962C125.685 123.371 126.223 124.03 126.747 124.68C127.282 125.347 128.095 125.543 128.625 126.196C129.236 126.95 129.642 127.85 130.029 128.733C130.189 129.097 130.472 129.369 130.576 129.733C130.721 130.232 130.576 130.656 130.873 131.152C131.156 131.623 131.408 131.942 131.548 132.503C131.688 133.063 131.798 133.599 131.871 134.176C131.856 134.173 131.842 134.17 131.828 134.165Z" fill="#74ABAE"/>
<path d="M172.851 124.936C172.338 125.037 171.674 124.575 171.256 124.339C170.645 123.992 170.211 123.445 169.79 122.902C169.362 122.347 168.697 122.173 168.271 121.629C167.781 121.001 167.458 120.258 167.156 119.527C167.03 119.227 166.803 118.997 166.721 118.697C166.609 118.285 166.735 117.941 166.497 117.528C166.27 117.139 166.071 116.873 165.962 116.41C165.852 115.942 165.774 115.508 165.721 115.031C165.732 115.034 165.743 115.037 165.754 115.04C166.267 114.939 166.932 115.401 167.349 115.637C167.96 115.984 168.395 116.531 168.815 117.074C169.244 117.629 169.908 117.803 170.334 118.347C170.825 118.975 171.147 119.718 171.45 120.449C171.576 120.749 171.803 120.979 171.884 121.279C171.996 121.691 171.87 122.035 172.108 122.447C172.335 122.837 172.534 123.103 172.644 123.566C172.753 124.028 172.831 124.468 172.885 124.945C172.874 124.942 172.862 124.939 172.851 124.936Z" fill="#74ABAE"/>
<path d="M83.0676 121.175C83.0761 121.195 83.0901 121.217 83.1097 121.248C83.1377 121.293 83.1714 121.343 83.1798 121.396C83.1882 121.441 82.9359 121.388 82.9163 121.38C82.8266 121.34 82.7509 121.27 82.6781 121.206C82.636 121.169 82.5968 121.125 82.5463 121.105C82.4706 121.074 82.3669 121.071 82.2829 121.057C82.1651 121.038 82.0446 121.01 81.9549 120.926C81.8512 120.827 81.7391 120.732 81.6354 120.628C81.0664 120.062 80.6124 119.297 80.2564 118.582C79.8528 117.775 79.4184 116.993 79.1325 116.133C78.8662 115.325 78.6756 114.493 78.5046 113.661C78.4374 113.33 78.3225 112.985 78.3253 112.646C78.3253 112.332 78.2552 111.889 78.3869 111.598C78.3449 111.69 78.869 112.301 78.9475 112.382C79.1549 112.587 79.3651 112.831 79.5921 113.016C79.9453 113.305 80.3013 113.59 80.6824 113.843C81.1001 114.12 81.3579 114.417 81.6186 114.866C81.6214 114.871 81.6242 114.877 81.627 114.883C81.826 115.244 81.9521 115.67 82.025 116.074C82.1091 116.531 81.8288 117.198 82.2604 117.517C82.5183 117.708 82.8154 117.848 83.0004 118.123C83.3816 118.686 83.1041 119.233 83.034 119.816C83.0312 119.844 82.9976 119.866 82.992 119.891C82.9836 119.93 82.992 119.984 82.992 120.029C82.9808 120.149 82.9359 120.278 82.9415 120.401C82.9443 120.471 82.9696 120.502 82.978 120.572C82.9864 120.642 82.9583 120.707 82.9724 120.76C83.0032 120.864 83.0677 120.886 83.0564 121.007C83.048 121.094 83.0424 121.125 83.0676 121.175Z" fill="#2E7075"/>
<path d="M81.2243 78.854C81.2355 78.8736 81.2523 78.8933 81.2747 78.9213C81.3083 78.9633 81.3476 79.0082 81.3644 79.0586C81.3784 79.1007 81.1206 79.0838 81.1009 79.0782C81.0056 79.0502 80.9243 78.9914 80.8403 78.9381C80.7954 78.9073 80.7506 78.868 80.6945 78.854C80.616 78.8344 80.5095 78.8428 80.4282 78.84C80.3077 78.8344 80.1872 78.8232 80.0863 78.7531C79.9686 78.669 79.8453 78.5906 79.7303 78.5009C79.0913 78.016 78.5419 77.3181 78.0907 76.6566C77.5834 75.9082 77.048 75.1935 76.65 74.3779C76.2773 73.6155 75.9773 72.8139 75.6999 72.0123C75.5878 71.6956 75.4308 71.3648 75.3859 71.0313C75.3467 70.7202 75.2178 70.2913 75.3075 69.9858C75.2766 70.0839 75.8764 70.6193 75.9689 70.6894C76.2016 70.8659 76.4426 71.0789 76.6921 71.2331C77.0789 71.4741 77.4712 71.7096 77.8805 71.9086C78.3317 72.1272 78.626 72.3879 78.9427 72.7971C78.9456 72.8027 78.9512 72.8083 78.954 72.8139C79.1978 73.1446 79.3828 73.5511 79.5089 73.9435C79.6519 74.3863 79.4641 75.0842 79.9321 75.3449C80.2124 75.499 80.5264 75.5999 80.7478 75.8466C81.199 76.3539 81 76.9313 81.0084 77.5199C81.0084 77.5479 80.9776 77.5759 80.9776 77.5983C80.9776 77.6404 80.9916 77.6908 80.9944 77.7329C81 77.8562 80.972 77.9879 80.9944 78.1085C81.0056 78.1757 81.0337 78.2038 81.0533 78.2738C81.0729 78.3439 81.0533 78.4084 81.0729 78.4616C81.1149 78.5597 81.185 78.5737 81.1906 78.6943C81.1934 78.7839 81.1934 78.812 81.2243 78.8596V78.854Z" fill="#74ABAE"/>
<path d="M57.846 18.7242C57.8656 18.7326 57.888 18.741 57.9189 18.7522C57.9665 18.769 58.0198 18.7831 58.0562 18.8167C58.087 18.8419 57.8796 18.9568 57.86 18.9596C57.7731 18.9849 57.6778 18.9793 57.5881 18.9793C57.5377 18.9793 57.4816 18.968 57.434 18.9849C57.3611 19.0073 57.2854 19.0661 57.2182 19.1054C57.1229 19.1614 57.022 19.2119 56.9071 19.2063C56.7753 19.1979 56.638 19.1951 56.5034 19.1839C55.7635 19.1194 54.9899 18.8447 54.3144 18.5448C53.5493 18.2085 52.7785 17.9142 52.0665 17.4685C51.3995 17.0537 50.7716 16.5744 50.1578 16.0839C49.914 15.8905 49.6281 15.7112 49.4291 15.4701C49.2441 15.2459 48.933 14.974 48.8545 14.6909C48.8797 14.7834 49.6113 14.9067 49.7178 14.9151C49.9868 14.9376 50.2811 14.988 50.5502 14.9852C50.9706 14.9852 51.3939 14.974 51.8143 14.9292C52.2768 14.8787 52.6355 14.9376 53.084 15.1029C53.0896 15.1029 53.0952 15.1057 53.1008 15.1085C53.4568 15.2459 53.7987 15.4757 54.0902 15.7196C54.4209 15.9942 54.6143 16.6333 55.1104 16.6053C55.4047 16.5884 55.7018 16.5128 55.9933 16.5968C56.5959 16.7706 56.7221 17.3228 57.0192 17.7796C57.0332 17.8021 57.022 17.8385 57.0332 17.8581C57.0528 17.8918 57.0892 17.9226 57.1117 17.9562C57.1761 18.0487 57.2182 18.1664 57.2966 18.2505C57.3387 18.2982 57.3751 18.3066 57.4228 18.3514C57.4704 18.3963 57.4872 18.4579 57.5321 18.4888C57.6134 18.5448 57.675 18.5224 57.7367 18.6121C57.7815 18.6794 57.7983 18.7046 57.8432 18.7242H57.846Z" fill="#74ABAE"/>
<path d="M94.9787 40.4448C94.9647 40.428 94.9478 40.4084 94.9254 40.3775C94.8946 40.3327 94.861 40.285 94.8161 40.2542C94.7797 40.229 94.7292 40.4812 94.732 40.5037C94.732 40.6018 94.7713 40.6971 94.8021 40.7896C94.8189 40.8428 94.847 40.8961 94.847 40.9521C94.847 41.0334 94.8105 41.1315 94.7909 41.2128C94.7657 41.3305 94.7432 41.451 94.7909 41.5659C94.8413 41.7005 94.889 41.8406 94.9423 41.9751C95.2506 42.7179 95.7831 43.427 96.3072 44.0296C96.9014 44.7107 97.4564 45.4114 98.1459 46.0028C98.7906 46.5578 99.4885 47.0511 100.192 47.5248C100.472 47.7126 100.747 47.9508 101.061 48.0769C101.352 48.1946 101.734 48.4301 102.053 48.4189C101.949 48.4217 101.585 47.707 101.543 47.6004C101.431 47.3314 101.288 47.0427 101.201 46.7624C101.066 46.3252 100.938 45.8879 100.851 45.4395C100.753 44.9462 100.576 44.5958 100.262 44.1866C100.259 44.181 100.254 44.1754 100.251 44.1726C99.993 43.8503 99.6454 43.57 99.3007 43.3485C98.9083 43.0963 98.1851 43.1019 98.0562 42.5806C97.9777 42.2694 97.9609 41.9415 97.7787 41.664C97.4031 41.0979 96.7921 41.1455 96.2259 40.9857C96.2007 40.9773 96.1643 40.9998 96.1419 40.997C96.1026 40.9886 96.0578 40.9605 96.0157 40.9465C95.898 40.9101 95.7635 40.9045 95.6514 40.8512C95.5897 40.8232 95.5673 40.7868 95.5056 40.7531C95.444 40.7195 95.3739 40.7195 95.329 40.6859C95.2449 40.6186 95.2478 40.5485 95.1328 40.5149C95.0488 40.4896 95.0179 40.4812 94.9815 40.442L94.9787 40.4448Z" fill="#74ABAE"/>
<path d="M135.366 108.615C135.38 108.64 135.399 108.671 135.425 108.713C135.467 108.775 135.512 108.839 135.528 108.909C135.542 108.968 135.2 108.909 135.172 108.901C135.049 108.85 134.945 108.764 134.842 108.679C134.783 108.632 134.73 108.573 134.659 108.548C134.556 108.511 134.416 108.511 134.303 108.494C134.144 108.472 133.981 108.441 133.858 108.332C133.712 108.203 133.558 108.08 133.412 107.948C132.619 107.214 131.974 106.207 131.459 105.263C130.878 104.195 130.253 103.166 129.827 102.02C129.429 100.949 129.132 99.8337 128.863 98.7238C128.757 98.2837 128.586 97.8213 128.572 97.3672C128.56 96.944 128.443 96.3526 128.605 95.9546C128.552 96.0835 129.286 96.8795 129.399 96.9832C129.687 97.2495 129.981 97.5662 130.295 97.8073C130.783 98.1801 131.276 98.5472 131.801 98.8695C132.378 99.2227 132.737 99.6095 133.107 100.201C133.112 100.209 133.115 100.215 133.121 100.223C133.407 100.7 133.597 101.269 133.715 101.807C133.849 102.418 133.505 103.329 134.099 103.738C134.455 103.982 134.861 104.158 135.125 104.517C135.663 105.254 135.318 106.003 135.254 106.793C135.251 106.83 135.206 106.863 135.2 106.897C135.192 106.953 135.209 107.02 135.203 107.079C135.192 107.244 135.139 107.418 135.153 107.584C135.161 107.676 135.195 107.718 135.209 107.813C135.223 107.909 135.189 107.996 135.212 108.066C135.256 108.203 135.346 108.231 135.338 108.391C135.329 108.508 135.327 108.551 135.36 108.615H135.366Z" fill="#74ABAE"/>
<path d="M146.567 79.1547C146.578 79.18 146.592 79.208 146.614 79.2444C146.648 79.3005 146.684 79.3594 146.695 79.4238C146.704 79.4771 146.404 79.407 146.382 79.3958C146.275 79.3453 146.188 79.2612 146.101 79.1828C146.051 79.1379 146.006 79.0819 145.944 79.0566C145.855 79.0174 145.728 79.009 145.63 78.9894C145.49 78.9614 145.347 78.9249 145.241 78.8212C145.117 78.7007 144.986 78.583 144.865 78.4568C144.198 77.7617 143.677 76.8312 143.27 75.9623C142.811 74.9813 142.309 74.034 141.992 72.9913C141.695 72.0159 141.491 71.0097 141.311 70.0091C141.241 69.6111 141.112 69.1935 141.126 68.787C141.137 68.4115 141.065 67.8789 141.23 67.5342C141.177 67.6463 141.788 68.3918 141.88 68.4899C142.124 68.7422 142.368 69.0421 142.634 69.2691C143.049 69.6279 143.467 69.9811 143.918 70.295C144.411 70.6397 144.711 71.0041 145.011 71.5478C145.014 71.5534 145.019 71.5619 145.022 71.5675C145.249 72.0075 145.389 72.5232 145.468 73.0081C145.555 73.5603 145.199 74.3507 145.709 74.7459C146.012 74.9813 146.365 75.1579 146.581 75.4942C147.021 76.1809 146.673 76.8284 146.572 77.5263C146.567 77.5599 146.527 77.5852 146.519 77.616C146.508 77.6636 146.519 77.7281 146.513 77.7786C146.496 77.9243 146.438 78.0757 146.44 78.2242C146.44 78.3083 146.471 78.3447 146.48 78.4316C146.488 78.5185 146.452 78.5914 146.468 78.6558C146.502 78.782 146.581 78.81 146.564 78.9529C146.55 79.0595 146.544 79.0931 146.572 79.1547H146.567Z" fill="#F5CEAD"/>
<path d="M109.401 46.4987C109.415 46.5155 109.432 46.5323 109.457 46.5547C109.494 46.5884 109.536 46.6248 109.558 46.6724C109.578 46.7089 109.334 46.7285 109.315 46.7257C109.222 46.7117 109.138 46.6696 109.054 46.6304C109.006 46.608 108.961 46.5772 108.908 46.5715C108.83 46.5631 108.734 46.5856 108.656 46.594C108.544 46.6052 108.429 46.6108 108.325 46.5575C108.205 46.4931 108.078 46.437 107.961 46.3697C107.299 45.9998 106.697 45.4224 106.192 44.8618C105.623 44.2312 105.029 43.6314 104.553 42.9223C104.107 42.258 103.723 41.5489 103.359 40.8369C103.213 40.5539 103.022 40.268 102.938 39.9597C102.86 39.6738 102.683 39.2926 102.731 38.9927C102.717 39.088 103.345 39.5112 103.44 39.5617C103.681 39.6962 103.933 39.8644 104.185 39.9737C104.578 40.1474 104.973 40.3156 105.382 40.4502C105.833 40.5959 106.142 40.8005 106.489 41.1424C106.495 41.1481 106.498 41.1509 106.503 41.1565C106.775 41.4339 106.999 41.7899 107.168 42.1375C107.358 42.5327 107.274 43.2081 107.745 43.3875C108.025 43.4968 108.334 43.5473 108.569 43.7491C109.057 44.1639 108.945 44.7301 109.029 45.2766C109.031 45.3019 109.009 45.3327 109.009 45.3551C109.012 45.3944 109.034 45.4392 109.043 45.4784C109.062 45.5905 109.054 45.7195 109.09 45.8288C109.11 45.8905 109.141 45.9129 109.166 45.9745C109.191 46.0362 109.183 46.1007 109.211 46.1455C109.264 46.2324 109.329 46.2352 109.351 46.3473C109.365 46.4286 109.371 46.4566 109.401 46.4959V46.4987Z" fill="#74ABAE"/>
</svg>
